<?xml version="1.0" encoding="UTF-8"?>
<svg width="20" height="22" viewBox="0 0 20 22" fill="none" xmlns="http://www.w3.org/2000/svg">
<path d="M6 10.25H5.25V11.75H6V10.25ZM14 11.75H14.75V10.25H14V11.75ZM11.3333 14.25H10.5833V15.75H11.3333V14.25ZM14 15.75H14.75V14.25H14V15.75ZM6 6.25002H5.25V7.75002H6V6.25002ZM8.66667 7.75002H9.41667V6.25002H8.66667V7.75002ZM14 1.66669L14.5303 1.13636L14.3107 0.916687H14V1.66669ZM18 5.66669H18.75V5.35603L18.5303 5.13636L18 5.66669ZM6 11.75H14V10.25H6V11.75ZM11.3333 15.75H14V14.25H11.3333V15.75ZM6 7.75002H8.66667V6.25002H6V7.75002ZM16.6667 19.5834H3.33333V21.0834H16.6667V19.5834ZM2.75 19V3.00002H1.25V19H2.75ZM3.33333 2.41669H14V0.916687H3.33333V2.41669ZM17.25 5.66669V19H18.75V5.66669H17.25ZM13.4697 2.19702L17.4697 6.19702L18.5303 5.13636L14.5303 1.13636L13.4697 2.19702ZM3.33333 19.5834C3.01117 19.5834 2.75 19.3222 2.75 19H1.25C1.25 20.1506 2.18274 21.0834 3.33333 21.0834V19.5834ZM16.6667 21.0834C17.8173 21.0834 18.75 20.1506 18.75 19H17.25C17.25 19.3222 16.9888 19.5834 16.6667 19.5834V21.0834ZM2.75 3.00002C2.75 2.67785 3.01117 2.41669 3.33333 2.41669V0.916687C2.18274 0.916687 1.25 1.84943 1.25 3.00002H2.75Z" fill="#393938"/>
</svg>
