<?xml version="1.0" encoding="UTF-8"?>
<svg width="22" height="22" viewBox="0 0 22 22" fill="none" xmlns="http://www.w3.org/2000/svg">
<path d="M11 1.66669L11.4881 1.09724C11.2072 0.856501 10.7927 0.856501 10.5119 1.09724L11 1.66669ZM1.66663 9.66669L1.17853 9.09724L0.916626 9.32174V9.66669H1.66663ZM8.33329 20.3334V21.0834C8.74751 21.0834 9.08329 20.7476 9.08329 20.3334H8.33329ZM13.6666 20.3334H12.9166C12.9166 20.7476 13.2524 21.0834 13.6666 21.0834V20.3334ZM20.3333 9.66669H21.0833V9.32174L20.8214 9.09724L20.3333 9.66669ZM2.99996 21.0834H8.33329V19.5834H2.99996V21.0834ZM20.8214 9.09724L11.4881 1.09724L10.5119 2.23613L19.8452 10.2361L20.8214 9.09724ZM10.5119 1.09724L1.17853 9.09724L2.15472 10.2361L11.4881 2.23613L10.5119 1.09724ZM9.08329 20.3334V16.3334H7.58329V20.3334H9.08329ZM12.9166 16.3334V20.3334H14.4166V16.3334H12.9166ZM13.6666 21.0834H19V19.5834H13.6666V21.0834ZM21.0833 19V9.66669H19.5833V19H21.0833ZM0.916626 9.66669V19H2.41663V9.66669H0.916626ZM11 14.4167C12.0585 14.4167 12.9166 15.2748 12.9166 16.3334H14.4166C14.4166 14.4464 12.8869 12.9167 11 12.9167V14.4167ZM11 12.9167C9.11299 12.9167 7.58329 14.4464 7.58329 16.3334H9.08329C9.08329 15.2748 9.94141 14.4167 11 14.4167V12.9167ZM19 21.0834C20.1506 21.0834 21.0833 20.1506 21.0833 19H19.5833C19.5833 19.3222 19.3221 19.5834 19 19.5834V21.0834ZM2.99996 19.5834C2.67779 19.5834 2.41663 19.3222 2.41663 19H0.916626C0.916626 20.1506 1.84937 21.0834 2.99996 21.0834V19.5834Z" fill="#393938"/>
</svg>
