<?xml version="1.0" encoding="UTF-8"?>
<svg width="22" height="22" viewBox="0 0 22 22" fill="none" xmlns="http://www.w3.org/2000/svg">
<path d="M8.33335 16.3238L8.95727 15.9076C8.81815 15.699 8.58404 15.5738 8.33335 15.5738V16.3238ZM11 20.3212L10.3761 20.7374C10.5152 20.9459 10.7493 21.0712 11 21.0712C11.2507 21.0712 11.4848 20.9459 11.6239 20.7374L11 20.3212ZM13.6667 16.3238V15.5738C13.416 15.5738 13.1819 15.699 13.0428 15.9076L13.6667 16.3238ZM7.70944 16.74L10.3761 20.7374L11.6239 19.905L8.95727 15.9076L7.70944 16.74ZM11.6239 20.7374L14.2906 16.74L13.0428 15.9076L10.3761 19.905L11.6239 20.7374ZM13.6667 17.0738H19V15.5738H13.6667V17.0738ZM19 17.0738C20.1511 17.0738 21.0834 16.1429 21.0834 14.9913H19.5834C19.5834 15.3135 19.3236 15.5738 19 15.5738V17.0738ZM21.0834 14.9913V2.99915H19.5834V14.9913H21.0834ZM21.0834 2.99915C21.0834 1.84762 20.1511 0.916687 19 0.916687V2.41669C19.3236 2.41669 19.5834 2.67697 19.5834 2.99915H21.0834ZM19 0.916687H3.00002V2.41669H19V0.916687ZM3.00002 0.916687C1.84893 0.916687 0.916687 1.84762 0.916687 2.99915H2.41669C2.41669 2.67697 2.67644 2.41669 3.00002 2.41669V0.916687ZM0.916687 2.99915V14.9913H2.41669V2.99915H0.916687ZM0.916687 14.9913C0.916687 16.1429 1.84893 17.0738 3.00002 17.0738V15.5738C2.67644 15.5738 2.41669 15.3135 2.41669 14.9913H0.916687ZM3.00002 17.0738H8.33335V15.5738H3.00002V17.0738ZM7.66669 11.75H14.3334V10.25H7.66669V11.75ZM6.33335 7.75002H15.6667V6.25002H6.33335V7.75002Z" fill="#393938"/>
</svg>
