<?xml version="1.0" encoding="UTF-8"?>
<svg width="22" height="18" viewBox="0 0 22 18" fill="none" xmlns="http://www.w3.org/2000/svg">
<path d="M11 1L11.2954 0.310641C11.1067 0.229786 10.8932 0.229786 10.7045 0.310641L11 1ZM1.66663 5L1.37119 4.31064C1.09542 4.42883 0.916626 4.69998 0.916626 5C0.916626 5.30002 1.09542 5.57117 1.37119 5.68936L1.66663 5ZM11 9L10.7045 9.68936C10.8932 9.77021 11.1067 9.77021 11.2954 9.68936L11 9ZM20.3333 5L20.6287 5.68936C20.9045 5.57117 21.0833 5.30002 21.0833 5C21.0833 4.69998 20.9045 4.42883 20.6287 4.31064L20.3333 5ZM11 13L10.7045 13.6894L11 13.816L11.2954 13.6894L11 13ZM11 17L10.7045 17.6894L11 17.816L11.2954 17.6894L11 17ZM10.7045 0.310641L1.37119 4.31064L1.96207 5.68936L11.2954 1.68936L10.7045 0.310641ZM1.37119 5.68936L10.7045 9.68936L11.2954 8.31064L1.96207 4.31064L1.37119 5.68936ZM11.2954 9.68936L20.6287 5.68936L20.0379 4.31064L10.7045 8.31064L11.2954 9.68936ZM20.6287 4.31064L11.2954 0.310641L10.7045 1.68936L20.0379 5.68936L20.6287 4.31064ZM1.37119 9.68936L10.7045 13.6894L11.2954 12.3106L1.96207 8.31064L1.37119 9.68936ZM11.2954 13.6894L20.6287 9.68936L20.0379 8.31064L10.7045 12.3106L11.2954 13.6894ZM1.37119 13.6894L10.7045 17.6894L11.2954 16.3106L1.96207 12.3106L1.37119 13.6894ZM11.2954 17.6894L20.6287 13.6894L20.0379 12.3106L10.7045 16.3106L11.2954 17.6894Z" fill="#393938"/>
</svg>
