<svg width="192" height="192" viewBox="0 0 192 192" fill="none" xmlns="http://www.w3.org/2000/svg">
<rect x="9" y="9" width="173" height="173" rx="86.5" fill="#EF873D"/>
<path d="M47.974 120.104V61.922H35.174V120.104H47.974Z" fill="white"/>
<path d="M105.984 120.104V59.4285H93.3506V81.3713C91.8545 79.5982 89.9983 78.0466 87.7818 76.7168C85.6208 75.3869 82.8502 74.722 79.4701 74.722C76.8104 74.722 74.2615 75.2207 71.8234 76.2181C69.3853 77.2155 67.2242 78.7116 65.3402 80.7064C63.5117 82.6458 62.0156 85.0562 60.8519 87.9376C59.7437 90.7635 59.1896 94.0328 59.1896 97.7453V97.9116C59.1896 101.624 59.7437 104.921 60.8519 107.802C62.0156 110.628 63.5394 113.039 65.4234 115.034C67.3073 116.973 69.4684 118.441 71.9065 119.439C74.3446 120.436 76.8658 120.935 79.4701 120.935C82.7948 120.935 85.5376 120.27 87.6987 118.94C89.9151 117.555 91.7991 115.809 93.3506 113.704V120.104H105.984ZM93.5169 97.9116C93.5169 99.7402 93.2121 101.43 92.6026 102.982C92.0485 104.478 91.2727 105.78 90.2753 106.888C89.3333 107.941 88.1974 108.772 86.8675 109.382C85.5931 109.936 84.2078 110.213 82.7117 110.213C81.2156 110.213 79.8026 109.936 78.4727 109.382C77.1983 108.772 76.0623 107.941 75.0649 106.888C74.0675 105.78 73.2641 104.478 72.6545 102.982C72.1004 101.43 71.8234 99.7402 71.8234 97.9116V97.7453C71.8234 95.8614 72.1004 94.1713 72.6545 92.6752C73.2641 91.1791 74.0675 89.9047 75.0649 88.8518C76.0623 87.7436 77.1983 86.9125 78.4727 86.3583C79.8026 85.7488 81.2156 85.444 82.7117 85.444C84.2078 85.444 85.5931 85.7488 86.8675 86.3583C88.1974 86.9125 89.3333 87.7436 90.2753 88.8518C91.2727 89.9047 92.0485 91.2068 92.6026 92.7583C93.2121 94.2544 93.5169 95.9168 93.5169 97.7453V97.9116Z" fill="white"/>
<path d="M160.243 103.73C160.243 100.239 159.412 97.4683 157.75 95.4181C156.143 93.3125 153.843 91.4839 150.851 89.9324C153.123 88.5471 154.924 86.857 156.254 84.8622C157.584 82.8674 158.249 80.2908 158.249 77.1324C158.249 74.9159 157.75 72.838 156.753 70.8986C155.811 68.9038 154.425 67.186 152.597 65.7453C150.824 64.3047 148.663 63.1687 146.114 62.3376C143.62 61.5064 140.85 61.0908 137.802 61.0908C134.699 61.0908 131.901 61.5064 129.407 62.3376C126.914 63.1687 124.753 64.3047 122.924 65.7453C121.151 67.186 119.766 68.9038 118.768 70.8986C117.826 72.838 117.355 74.9159 117.355 77.1324C117.355 80.2908 118.02 82.8674 119.35 84.8622C120.68 86.857 122.481 88.5471 124.753 89.9324C121.65 91.3731 119.295 93.2016 117.688 95.4181C116.136 97.5791 115.36 100.461 115.36 104.062C115.36 106.611 115.914 108.938 117.023 111.044C118.186 113.094 119.766 114.867 121.76 116.364C123.755 117.804 126.11 118.94 128.825 119.771C131.596 120.547 134.588 120.935 137.802 120.935C141.016 120.935 143.98 120.547 146.695 119.771C149.466 118.996 151.849 117.887 153.843 116.447C155.838 114.951 157.39 113.15 158.498 111.044C159.662 108.883 160.243 106.445 160.243 103.73ZM146.114 78.5454C146.114 80.651 145.366 82.3687 143.869 83.6986C142.373 85.0285 140.351 85.6934 137.802 85.6934C135.253 85.6934 133.231 85.0285 131.734 83.6986C130.238 82.3133 129.49 80.5679 129.49 78.4622C129.49 76.6337 130.211 75.0544 131.651 73.7246C133.092 72.3393 135.142 71.6467 137.802 71.6467C140.462 71.6467 142.512 72.3393 143.953 73.7246C145.393 75.1098 146.114 76.7168 146.114 78.5454ZM147.859 103.065C147.859 105.17 146.972 106.916 145.199 108.301C143.426 109.686 140.96 110.379 137.802 110.379C134.643 110.379 132.178 109.686 130.405 108.301C128.631 106.916 127.745 105.17 127.745 103.065C127.745 100.738 128.687 98.9644 130.571 97.7453C132.455 96.4709 134.865 95.8337 137.802 95.8337C140.739 95.8337 143.149 96.4709 145.033 97.7453C146.917 98.9644 147.859 100.738 147.859 103.065Z" fill="white"/>
</svg>
